<?xml version="1.0" encoding="utf-8"?>
<!-- Generator: Adobe Illustrator 16.0.0, SVG Export Plug-In . SVG Version: 6.00 Build 0)  -->
<!DOCTYPE svg PUBLIC "-//W3C//DTD SVG 1.1//EN" "http://www.w3.org/Graphics/SVG/1.1/DTD/svg11.dtd">
<svg version="1.1" id="Layer_1" xmlns="http://www.w3.org/2000/svg" xmlns:xlink="http://www.w3.org/1999/xlink" x="0px" y="0px"
	 width="110px" height="110px" viewBox="0 0 110 110" enable-background="new 0 0 110 110" xml:space="preserve">
<g>
	<path fill="#FF88AD" d="M81.262,67.667c-0.371,0.476-0.804,1.014-1.296,1.618c-0.493,0.605-1.05,1.165-1.669,1.683
		c-0.621,0.519-1.301,0.962-2.039,1.328c-0.74,0.366-1.52,0.551-2.339,0.551c-2.331,0-4.121-0.637-5.373-1.911
		c-1.251-1.272-2.104-2.945-2.56-5.017c-0.246-1.122-0.389-2.309-0.426-3.561c-0.039-1.251,0.007-2.567,0.135-3.949
		c-1.132-0.042-2.289-0.107-3.474-0.194s-2.405-0.237-3.66-0.453c-1.158,2.979-2.48,5.849-3.966,8.61
		c-1.487,2.762-3.302,5.201-5.449,7.315c-2.147,2.114-4.709,3.809-7.688,5.082c-2.979,1.272-6.54,1.91-10.683,1.91
		c-3.237,0-5.696-0.638-7.379-1.91c-1.682-1.273-2.742-2.903-3.178-4.888c-0.427-1.942-0.25-4.079,0.534-6.409
		c0.782-2.331,2.043-4.499,3.781-6.507c1.738-2.007,3.895-3.679,6.472-5.017c2.576-1.337,5.438-2.007,8.589-2.007
		c1.899,0,3.466,0.259,4.703,0.777c1.236,0.518,2.186,1.209,2.851,2.071c0.921-0.129,1.9-0.193,2.936-0.193
		c1.424,0,2.863,0.064,4.315,0.193c1.25-3.149,2.553-6.301,3.911-9.452c1.356-3.149,2.95-6.063,4.779-8.739
		c1.828-2.675,3.979-5.017,6.451-7.024c2.472-2.008,5.495-3.42,9.07-4.241c-0.887,1.468-1.796,3.366-2.729,5.697
		c-0.935,2.33-1.811,4.866-2.633,7.606c-0.822,2.741-1.55,5.568-2.183,8.481c-0.633,2.913-1.107,5.708-1.426,8.384
		c1.03-0.216,2-0.519,2.908-0.906c0.907-0.39,1.704-0.884,2.392-1.489c-0.717,0.863-1.528,1.544-2.433,2.039
		c-0.905,0.496-1.896,0.854-2.97,1.068c-0.188,1.899-0.272,3.669-0.258,5.309c0.016,1.641,0.161,3.086,0.437,4.337
		c0.304,1.383,0.776,2.46,1.423,3.237c0.646,0.776,1.529,1.166,2.652,1.166c0.776,0,1.504-0.173,2.185-0.519
		c0.678-0.345,1.32-0.766,1.923-1.263c0.604-0.496,1.155-1.024,1.658-1.586c0.502-0.56,0.938-1.078,1.31-1.554L81.262,67.667z
		 M30.634,80.032c3.366,0,6.261-0.627,8.683-1.878c2.421-1.253,4.528-2.913,6.317-4.984c1.788-2.072,3.354-4.478,4.693-7.219
		c1.339-2.74,2.61-5.6,3.811-8.578c-0.657-0.042-1.311-0.074-1.963-0.098c-0.652-0.021-1.302-0.032-1.95-0.032
		c-0.95,0-1.821,0.064-2.611,0.194c0.276,0.477,0.482,1.015,0.615,1.619c0.285,1.295,0.163,2.654-0.366,4.078
		s-1.404,2.741-2.628,3.949c-1.223,1.209-2.773,2.212-4.647,3.011c-1.875,0.799-4,1.198-6.373,1.198
		c-1.382,0-2.408-0.205-3.081-0.615c-0.672-0.41-1.085-0.961-1.237-1.651c-0.171-0.777,0.049-1.693,0.658-2.752
		c0.61-1.057,1.526-2.137,2.752-3.237c1.225-1.1,2.694-2.125,4.406-3.074c1.711-0.949,3.581-1.726,5.606-2.33
		c-0.2-0.907-0.599-1.64-1.196-2.202c-0.599-0.561-1.394-0.841-2.386-0.841c-3.065,0-5.846,0.646-8.345,1.941
		s-4.604,2.913-6.313,4.856c-1.709,1.941-2.942,4.035-3.702,6.279c-0.758,2.244-0.929,4.316-0.511,6.215
		c0.398,1.813,1.382,3.291,2.949,4.435C25.383,79.46,27.655,80.032,30.634,80.032z M34.073,70.645c1.467,0,2.81-0.42,4.027-1.263
		c1.217-0.841,2.239-1.888,3.064-3.14c0.826-1.251,1.436-2.599,1.83-4.046c0.394-1.446,0.528-2.752,0.401-3.916
		c-1.948,0.561-3.738,1.306-5.368,2.232c-1.631,0.929-3.036,1.9-4.215,2.914c-1.18,1.014-2.058,2.028-2.633,3.042
		c-0.576,1.016-0.787,1.868-0.636,2.558C30.782,70.106,31.958,70.645,34.073,70.645z M59.678,57.243
		c1.021,0.13,2.048,0.238,3.081,0.324c1.033,0.087,2.029,0.151,2.989,0.194c0.265-2.719,0.789-5.536,1.573-8.448
		c0.784-2.914,1.696-5.687,2.735-8.319c1.04-2.633,2.155-5.018,3.348-7.155c1.191-2.136,2.329-3.786,3.411-4.952
		c-2.577,0.647-4.74,1.9-6.49,3.755c-1.751,1.856-3.279,4.078-4.588,6.668c-1.308,2.589-2.494,5.438-3.56,8.545
		c-1.064,3.108-2.184,6.216-3.356,9.324c0.13,0,0.271,0.01,0.429,0.032C59.405,57.233,59.548,57.243,59.678,57.243z"/>
</g>
</svg>
