<?xml version="1.0" encoding="utf-8"?>
<!-- Generator: Adobe Illustrator 16.0.0, SVG Export Plug-In . SVG Version: 6.00 Build 0)  -->
<!DOCTYPE svg PUBLIC "-//W3C//DTD SVG 1.1//EN" "http://www.w3.org/Graphics/SVG/1.1/DTD/svg11.dtd">
<svg version="1.1" id="Layer_1" xmlns="http://www.w3.org/2000/svg" xmlns:xlink="http://www.w3.org/1999/xlink" x="0px" y="0px"
	 width="53.5px" height="15.335px" viewBox="0 0 53.5 15.335" enable-background="new 0 0 53.5 15.335" xml:space="preserve">
<path fill="#009944" d="M26.298,2.491c-2.115,0.77-5.96,2.26-8.507,3.317C11.542,8.452,7.986,9.172,6.112,8.26
	C4.669,7.539,4.429,6.673,5.006,3.79c0.192-1.202-1.25-2.115-2.355-1.442c-2.066,1.297-1.009,4.374,2.211,6.44
	c1.202,0.817,3.124,2.21,4.277,3.124s3.316,2.019,4.806,2.451c3.653,1.057,6.777,0.48,15.91-3.028
	c12.256-4.71,16.053-5.383,18.504-3.46c1.345,1.058,1.682,3.172,0.672,4.182c-0.672,0.673,0.289,2.019,1.49,2.019
	c2.404,0,2.644-3.077,0.432-5.335c-1.633-1.586-4.806-3.269-6.248-3.317c-0.48,0-1.874-0.672-3.124-1.442
	C36.584,0.809,32.162,0.377,26.298,2.491z M38.218,3.165c0.865,0.385,1.826,1.009,2.163,1.442c0.673,0.817,0.529,0.913-2.788,1.586
	c-0.913,0.145-5.334,1.73-9.853,3.461c-10.958,4.181-15.38,4.518-17.976,1.345c-0.577-0.672-0.433-0.769,0.961-0.769
	c2.211,0,4.854-0.865,11.968-3.845C31.922,2.491,35.046,1.867,38.218,3.165z"/>
</svg>
