<?xml version="1.0" encoding="utf-8"?>
<!-- Generator: Adobe Illustrator 16.0.0, SVG Export Plug-In . SVG Version: 6.00 Build 0)  -->
<!DOCTYPE svg PUBLIC "-//W3C//DTD SVG 1.1//EN" "http://www.w3.org/Graphics/SVG/1.1/DTD/svg11.dtd">
<svg version="1.1" id="Layer_1" xmlns="http://www.w3.org/2000/svg" xmlns:xlink="http://www.w3.org/1999/xlink" x="0px" y="0px"
	 width="17.667px" height="18.891px" viewBox="0 0 17.667 18.891" enable-background="new 0 0 17.667 18.891" xml:space="preserve">
<title>black spade</title>
<g>
	<title>Layer 1</title>
	<g id="svg_1">
		<g id="g2005" transform="matrix(35.9854, 0, 0, 35.9854, -2550.64, -3750.97)">
			<path id="path2007" fill="#009944" d="M71.252,104.743c-0.051,0-0.078-0.054-0.092-0.108c-0.014-0.054-0.015-0.109-0.015-0.109
				l-0.026,0c0,0-0.005,0.217-0.107,0.217L71.252,104.743L71.252,104.743z"/>
		</g>
		<path id="path2009" fill="#009944" d="M16.492,10.443c-0.016-3.812-5.722-6.575-7.397-9.591c-1.674,3.016-7.38,5.78-7.396,9.591
			c-0.007,1.8,1.656,3.258,3.699,3.258c2.042,0,3.697-1.458,3.697-3.258c0,1.8,1.657,3.258,3.7,3.258
			C14.838,13.701,16.492,12.243,16.492,10.443L16.492,10.443z"/>
	</g>
</g>
</svg>
